<svg width="200" height="200" viewBox="0 0 40 40" fill="none" xmlns="http://www.w3.org/2000/svg">
  <defs>
    <linearGradient id="gradiaGradient" x1="0" y1="0" x2="1" y2="1">
      <stop offset="0%" stop-color="#76DAE8" /> 
      <stop offset="100%" stop-color="#76DAE8" /> 
    </linearGradient>
  </defs>
  
  <rect width="40" height="40" rx="10" fill="url(#gradiaGradient)" />
  
  <g transform="translate(2, 2)">
    <svg width="36" height="36" viewBox="0 0 24 24" fill="none" stroke="black" stroke-width="2" stroke-linecap="round" stroke-linejoin="round">
      <path d="M21.42 10.922a1 1 0 0 0-.019-1.838L12.83 5.18a2 2 0 0 0-1.66 0L2.6 9.08a1 1 0 0 0 0 1.832l8.57 3.908a2 2 0 0 0 1.66 0z" />
      <path d="M22 10v6" />
      <path d="M6 12.5V16a6 3 0 0 0 12 0v-3.5" />
    </svg>
  </g>
</svg>